<svg width="604" height="604" viewBox="0 0 604 604" fill="none" xmlns="http://www.w3.org/2000/svg">
<circle cx="302" cy="302" r="302" fill="#080E15"/>
<path d="M99.5805 398.739C93.554 398.739 88.7112 396.91 85.0523 393.251C81.3933 389.592 79.5638 384.803 79.5638 378.884C79.5638 372.858 81.3933 368.015 85.0523 364.356C88.7112 360.589 93.554 358.706 99.5805 358.706C105.499 358.706 110.288 360.589 113.947 364.356C117.714 368.015 119.597 372.858 119.597 378.884C119.597 384.803 117.714 389.592 113.947 393.251C110.288 396.91 105.499 398.739 99.5805 398.739ZM309.768 395.511H274.739L272.641 372.911C265.646 380.983 257.144 387.332 247.136 391.96C237.127 396.479 226.204 398.739 214.366 398.739C199.3 398.739 185.794 395.08 173.849 387.763C161.903 380.445 152.487 370.49 145.599 357.899C138.82 345.2 135.43 330.833 135.43 314.799C135.43 298.764 138.82 284.451 145.599 271.86C152.487 259.161 161.903 249.153 173.849 241.835C185.794 234.517 199.3 230.858 214.366 230.858C225.558 230.858 235.89 232.849 245.36 236.83C254.83 240.812 263.063 246.408 270.058 253.619V153.374H309.768V395.511ZM223.245 363.065C231.854 363.065 239.71 361.127 246.813 357.253C253.915 353.271 259.565 347.837 263.762 340.949C267.959 334.062 270.058 326.206 270.058 317.381V311.732C270.058 303.015 267.959 295.266 263.762 288.486C259.565 281.599 253.915 276.218 246.813 272.344C239.71 268.362 231.854 266.371 223.245 266.371C214.205 266.371 206.134 268.524 199.031 272.828C191.928 277.025 186.332 282.783 182.243 290.101C178.153 297.311 176.109 305.49 176.109 314.637C176.109 323.892 178.153 332.179 182.243 339.497C186.332 346.814 191.928 352.572 199.031 356.769C206.134 360.966 214.205 363.065 223.245 363.065ZM414.384 398.739C398.027 398.739 383.337 395.08 370.316 387.763C357.402 380.445 347.178 370.49 339.645 357.899C332.219 345.2 328.507 330.833 328.507 314.799C328.507 298.764 332.219 284.451 339.645 271.86C347.178 259.161 357.402 249.153 370.316 241.835C383.337 234.517 398.027 230.858 414.384 230.858C430.85 230.858 445.539 234.517 458.453 241.835C471.367 249.153 481.483 259.161 488.801 271.86C496.227 284.451 499.94 298.764 499.94 314.799C499.94 330.833 496.227 345.2 488.801 357.899C481.483 370.49 471.367 380.445 458.453 387.763C445.539 395.08 430.85 398.739 414.384 398.739ZM414.223 363.065C422.832 363.065 430.527 360.966 437.307 356.769C444.087 352.572 449.414 346.814 453.288 339.497C457.27 332.179 459.261 323.892 459.261 314.637C459.261 305.49 457.27 297.311 453.288 290.101C449.414 282.783 444.087 277.025 437.307 272.828C430.527 268.631 422.832 266.533 414.223 266.533C405.721 266.533 398.027 268.631 391.139 272.828C384.359 277.025 378.979 282.783 374.997 290.101C371.123 297.311 369.186 305.49 369.186 314.637C369.186 323.892 371.123 332.179 374.997 339.497C378.979 346.814 384.359 352.572 391.139 356.769C398.027 360.966 405.721 363.065 414.223 363.065Z" fill="#E4F0FF"/>
</svg>
