<svg width="408" height="121" viewBox="0 0 408 121" fill="none" xmlns="http://www.w3.org/2000/svg">
<rect y="2.3374" width="281.648" height="116.325" rx="8.1981" fill="white"/>
<path d="M57.4948 62.1025L21.439 26.0466V94.9533H33.9917V57.5621L57.4948 81.0651L80.9978 57.5621V94.9533H93.5506V26.0466L57.4948 62.1025Z" fill="black"/>
<path d="M151.24 73.4535V23.7766H138.954V73.4535L121.06 55.5592L112.246 64.3728L145.097 97.2237L177.948 64.3728L169.134 55.5592L151.24 73.4535Z" fill="black"/>
<path d="M197.979 26.7144L189.166 35.528L215.606 61.9689L189.166 88.4099L197.979 97.2235L224.687 70.5155L251.395 97.2235L260.209 88.4099L233.768 61.9689L260.209 35.528L251.395 26.7144L224.687 53.4224L197.979 26.7144Z" fill="black"/>
<path d="M371.532 24.3051V63.7373C371.532 70.7475 370.273 76.7698 367.756 81.8044C365.27 86.839 361.686 90.7105 357.002 93.419C352.349 96.0956 346.757 97.4339 340.225 97.4339C333.725 97.4339 328.132 96.0956 323.448 93.419C318.764 90.7105 315.164 86.839 312.646 81.8044C310.161 76.7698 308.918 70.7475 308.918 63.7373V24.3051H323.639V61.921C323.639 66.9237 324.261 71.098 325.504 74.4437C326.778 77.7895 328.642 80.3227 331.096 82.0434C333.549 83.7322 336.592 84.5766 340.225 84.5766C343.857 84.5766 346.9 83.7322 349.354 82.0434C351.808 80.3227 353.656 77.7895 354.898 74.4437C356.173 71.098 356.81 66.9237 356.81 61.921V24.3051H371.532ZM386.131 96V24.3051H400.852V96H386.131Z" fill="white"/>
</svg>
