<svg width="405" height="119" viewBox="0 0 405 119" fill="none" xmlns="http://www.w3.org/2000/svg">
<rect y="1.3374" width="281.648" height="116.325" rx="8.1981" fill="white"/>
<path d="M57.4948 61.1025L21.439 25.0466V93.9533H33.9917V56.5621L57.4948 80.0651L80.9978 56.5621V93.9533H93.5506V25.0466L57.4948 61.1025Z" fill="black"/>
<path d="M151.24 72.4535V22.7766H138.954V72.4535L121.06 54.5592L112.246 63.3728L145.097 96.2237L177.948 63.3728L169.134 54.5592L151.24 72.4535Z" fill="black"/>
<path d="M197.979 25.7144L189.166 34.528L215.606 60.9689L189.166 87.4099L197.979 96.2235L224.687 69.5155L251.395 96.2235L260.209 87.4099L233.768 60.9689L260.209 34.528L251.395 25.7144L224.687 52.4224L197.979 25.7144Z" fill="black"/>
<path d="M369.931 24.6875V63.4531C369.931 70.2656 368.712 76.1406 366.274 81.0781C363.868 86.0156 360.399 89.8125 355.868 92.4688C351.337 95.0938 345.915 96.4062 339.603 96.4062C333.321 96.4062 327.915 95.0938 323.384 92.4688C318.853 89.8125 315.368 86.0156 312.931 81.0781C310.524 76.1406 309.321 70.2656 309.321 63.4531V24.6875H321.696V62.0469C321.696 67.1406 322.384 71.4375 323.759 74.9375C325.134 78.4375 327.149 81.0781 329.806 82.8594C332.493 84.6406 335.759 85.5312 339.603 85.5312C343.478 85.5312 346.743 84.6406 349.399 82.8594C352.087 81.0781 354.118 78.4375 355.493 74.9375C356.868 71.4375 357.556 67.1406 357.556 62.0469V24.6875H369.931ZM385.326 95V24.6875H397.701V95H385.326Z" fill="black"/>
</svg>
