<svg width="1200" height="1200" viewBox="0 0 1200 1200" fill="none" xmlns="http://www.w3.org/2000/svg">
<rect width="1200" height="1200" fill="#FDFDFD"/>
<rect x="396" y="541.337" width="281.648" height="116.325" rx="8.1981" fill="black"/>
<path d="M453.495 601.102L417.439 565.047V633.953H429.992V596.562L453.495 620.065L476.998 596.562V633.953H489.551V565.047L453.495 601.102Z" fill="white"/>
<path d="M547.24 612.453V562.776H534.954V612.453L517.06 594.559L508.246 603.373L541.097 636.224L573.948 603.373L565.134 594.559L547.24 612.453Z" fill="url(#paint0_linear_497_77)"/>
<path d="M593.979 565.714L585.166 574.528L611.606 600.969L585.166 627.41L593.979 636.224L620.687 609.516L647.395 636.224L656.209 627.41L629.768 600.969L656.209 574.528L647.395 565.714L620.687 592.422L593.979 565.714Z" fill="white"/>
<path d="M767.532 563.305V602.737C767.532 609.747 766.273 615.77 763.756 620.804C761.27 625.839 757.686 629.711 753.002 632.419C748.349 635.096 742.757 636.434 736.225 636.434C729.725 636.434 724.132 635.096 719.448 632.419C714.764 629.711 711.164 625.839 708.646 620.804C706.161 615.77 704.918 609.747 704.918 602.737V563.305H719.639V600.921C719.639 605.924 720.261 610.098 721.504 613.444C722.778 616.789 724.642 619.323 727.096 621.043C729.549 622.732 732.592 623.577 736.225 623.577C739.857 623.577 742.9 622.732 745.354 621.043C747.808 619.323 749.656 616.789 750.898 613.444C752.173 610.098 752.81 605.924 752.81 600.921V563.305H767.532ZM782.131 635V563.305H796.852V635H782.131Z" fill="black"/>
<defs>
<linearGradient id="paint0_linear_497_77" x1="527.761" y1="577.963" x2="549.647" y2="638.26" gradientUnits="userSpaceOnUse">
<stop offset="0.218607" stop-color="#F9AC00"/>
<stop offset="1" stop-color="#FED477"/>
</linearGradient>
</defs>
</svg>
